# AST/ASF file generated using VICON BodyLanguage
# -----------------------------------------------
:version 1.10
:name VICON
:units
  mass 1.0
  length 0.45
  angle deg
:documentation
   .ast/.asf automatically generated from VICON data using
   VICON BodyBuilder and BodyLanguage model FoxedUp or BRILLIANT.MOD
:root
   order TX TY TZ RX RY RZ
   axis XYZ
   position 0 0 0  
   orientation 0 0 0 
:bonedata
  begin
     id 1 
     name lhipjoint
     direction 0.547975 -0.797114 0.253638 
     length 2.36201 
     axis 0 0 0  XYZ
  end
  begin
     id 2 
     name lfemur
     direction 0.34202 -0.939693 0  
     length 7.69075  
     axis 0 0 20  XYZ
    dof rx ry rz
    limits (-160.0 20.0)
           (-70.0 70.0)
           (-60.0 70.0)
  end
  begin
     id 3 
     name ltibia
     direction 0.34202 -0.939693 0   
     length 7.91399   
     axis 0 0 20   XYZ
    dof rx
    limits (-10.0 170.0)
  end
  begin
     id 4 
     name lfoot
     direction 0.0705293 -0.193778 0.978507   
     length 2.13618   
     axis -90 7.62852e-016 20   XYZ
    dof rx rz
    limits (-45.0 90.0)
           (-70.0 20.0)
  end
  begin
     id 5 
     name ltoes
     direction 1.53592e-011 -4.21925e-011 1   
     length 1.07518   
     axis -90 7.62852e-016 20   XYZ
    dof rx
    limits (-90.0 20.0)
  end
  begin
     id 6 
     name rhipjoint
     direction -0.57 -0.782963 0.249136   
     length 2.4047  
     axis 0 0 0  XYZ 
  end
  begin
     id 7 
     name rfemur
     direction -0.34202 -0.939693 0   
     length 7.51486   
     axis 0 0 -20   XYZ
    dof rx ry rz
    limits (-160.0 20.0)
           (-70.0 70.0)
           (-70.0 60.0)
  end
  begin
     id 8 
     name rtibia
     direction -0.34202 -0.939693 0   
     length 8.08317   
     axis 0 0 -20   XYZ
    dof rx
    limits (-10.0 170.0)
 end
 begin
     id 9 
     name rfoot
     direction -0.104954 -0.281256 0.953876   
     length 2.30343  
     axis -90 -7.62852e-016 -20   XYZ
    dof rx rz
    limits (-45.0 90.0)
           (-20.0 70.0)
  end
  begin
     id 10 
     name rtoes
     direction -1.53556e-011 -4.21922e-011 1   
     length 1.14803   
     axis -90 -7.62852e-016 -20   XYZ
    dof rx
    limits (-90.0 20.0)
  end
  begin
     id 11 
     name lowerback
     direction -0.0152855 0.99353 -0.11254   
     length 2.05311   
     axis 0 0 0   XYZ
    dof rx ry rz
    limits (-20.0 45.0)
           (-30.0 30.0)
           (-30.0 30.0)
  end
  begin
     id 12 
     name upperback
     direction -0.00157509 0.999443 -0.033332   
     length 2.06353   
     axis 0 0 0   XYZ
    dof rx ry rz
    limits (-20.0 45.0)
           (-30.0 30.0)
           (-30.0 30.0)
  end
  begin
     id 13 
     name thorax
     direction 0.00577788 0.999804 0.0189484   
     length 2.08472   
     axis 0 0 0   XYZ
    dof rx ry rz
    limits (-20.0 45.0)
           (-30.0 30.0)
           (-30.0 30.0)
  end
  begin
     id 14 
     name lowerneck
     direction -1.09301e-005 0.994719 0.10264   
     length 1.76249   
     axis 0 0 0   XYZ
    dof rx ry rz
    limits (-20.0 45.0)
           (-30.0 30.0)
           (-30.0 30.0)
  end
  begin
     id 15 
     name upperneck
     direction 0.0495018 0.988526 -0.142706   
     length 1.77897   
     axis 0 0 0   XYZ
    dof rx ry rz
    limits (-20.0 45.0)
           (-30.0 30.0)
           (-30.0 30.0)
  end
  begin
     id 16
     name head
     direction 0.0142736 0.998114 -0.0597101  
     length 1.78934  
     axis 0 0 0   XYZ
    dof rx ry rz
    limits (-20.0 45.0)
           (-30.0 30.0)
           (-30.0 30.0)
  end
  begin
     id 17 
     name lclavicle
     direction 0.918111 0.396107 -0.0130883  
     length 3.37276  
     axis 0 0 0   XYZ
    dof ry rz
    limits (-20.0 10.0)
           (0.0 20.0)
  end
  begin
     id 18 
     name lhumerus
     direction 1 -4.48975e-011 -3.26108e-027   
     length 5.34298   
     axis 180 -30 -90   XYZ
    dof rx ry rz
    limits (-60.0 90.0)
           (-90.0 90.0)
           (-90.0 90.0)
  end
  begin
     id 19
     name lradius
     direction 1 -4.48964e-011 -8.84413e-028   
     length 3.67262   
     axis 180 -30 -90   XYZ
    dof rx
    limits (-10.0 170.0)
  end
  begin
     id 20
     name lwrist
     direction 1 -4.48991e-011 -1.24264e-027   
     length 1.83631   
     axis -2.17013e-015 90 90   XYZ
    dof ry
    limits (-180.0 0.0)
 end
  begin
     id 21 
     name lhand
     direction 1 -4.48855e-011 -2.48528e-027   
     length 0.599298   
     axis 1.58582e-015 90 90   XYZ
    dof rx rz
    limits (-90.0 90.0)
           (-45.0 45.0)
  end
  begin
     id 22 
     name lfingers
     direction 1 -4.48811e-011 -4.97056e-027   
     length 0.48317   
     axis 3.17164e-015 90 90   XYZ
    dof rx
    limits (0.0 90.0)
  end
  begin
     id 23
     name lthumb
     direction 0.707107 -6.34882e-011 0.707107   
     length 0.693738   
     axis -90 45 2.85299e-015   XYZ
    dof rx rz
    limits (-45.0 45.0)
           (-45.0 45.0)
  end
  begin
     id 24 
     name rclavicle
     direction -0.920511 0.384752 -0.0680135   
     length 3.43787  
     axis 0 0 0   XYZ 
    dof ry rz
    limits (-10.0 20.0)
           (-20.0 0.0)
  end
  begin
     id 25 
     name rhumerus
     direction -0.999976 -0.00330524 0.00603274  
     length 5.5498   
     axis 180 30 90   XYZ
    dof rx ry rz
    limits (-90.0 60.0)
           (-90.0 90.0)
           (-90.0 90.0)
  end
  begin
     id 26 
     name rradius
     direction -1 -4.48967e-011 8.62438e-027   
     length 3.69401   
     axis 180 30 90   XYZ
    dof rx
    limits (-10.0 170.0)
  end
  begin
     id 27 
     name rwrist
     direction -1 -4.4897e-011 9.54866e-027   
     length 1.84701   
     axis -7.69462e-015 -90 -90   XYZ
    dof ry
    limits (-180.0 0.0)
  end
  begin
     id 28
     name rhand
     direction -1 -4.48982e-011 1.90973e-026   
     length 0.638113   
     axis -1.21857e-014 -90 -90   XYZ
    dof rx rz
    limits (-90.0 90.0)
           (-45.0 45.0)
  end
  begin
     id 29
     name rfingers
     direction -1 -4.48936e-011 3.81946e-026   
     length 0.514463   
     axis -2.43714e-014 -90 -90   XYZ
    dof rx
    limits (0.0 90.0)
  end
  begin
     id 30
     name rthumb
     direction -0.707107 -6.34942e-011 0.707107   
     length 0.738669   
     axis -90 -45 -2.85299e-015   XYZ
    dof rx rz
    limits (-45.0 45.0)
           (-45.0 45.0)
  end
:hierarchy
  begin
    root lhipjoint rhipjoint lowerback
    lhipjoint lfemur
    lfemur ltibia
    ltibia lfoot
    lfoot ltoes
    rhipjoint rfemur
    rfemur rtibia
    rtibia rfoot
    rfoot rtoes
    lowerback upperback
    upperback thorax
    thorax lowerneck lclavicle rclavicle
    lowerneck upperneck
    upperneck head
    lclavicle lhumerus
    lhumerus lradius
    lradius lwrist
    lwrist lhand lthumb
    lhand lfingers
    rclavicle rhumerus
    rhumerus rradius
    rradius rwrist
    rwrist rhand rthumb
    rhand rfingers
  end

#!OML:ASF F:\twosubjects\two\Thursday\Session 1\Rory.ASF
:FULLY-SPECIFIED
:DEGREES
99
root 18.1966 18.582 -2.33074 2.83564 -8.78134 1.54526
lowerback 3.048 0.284 -4.21026
upperback 1.77115 0.258693 -3.05582
thorax 0.106414 0.110538 -0.78475
lowerneck -2.93954 -12.0189 -11.6068
upperneck 10.8892 -17.6827 16.6862
head 6.32633 -8.35376 5.71104
rclavicle -1.23246e-014 -2.3059e-014
rhumerus -63.0951 -39.6442 -34.175
rradius 12.9655
rwrist 56.5676
rhand -19.2786 25.2606
rfingers 7.12502
rthumb 7.03624 -4.60243
lclavicle -1.23246e-014 -2.3059e-014
lhumerus -47.8288 -6.89578 86.1942
lradius 100.183
lwrist -27.4379
lhand -24.2546 23.726
lfingers 7.12502
lthumb 2.23149 53.694
rfemur -0.302812 7.33782 16.1734
rtibia 41.1255
rfoot 7.39906 5.83656
rtoes -10.7193
lfemur -19.5444 0.290509 -19.4944
ltibia 23.8422
lfoot -5.55347 3.15337
ltoes 4.74775
100
root 18.2148 18.5768 -2.19987 2.79272 -8.72967 2.02868
lowerback 3.06731 0.224807 -4.7837
upperback 1.71436 0.160491 -3.09342
thorax 0.0385694 0.0591585 -0.50113
lowerneck -2.76927 -12.0738 -11.952
upperneck 10.5556 -17.7208 16.8139
head 6.24293 -8.39859 5.81047
rclavicle -1.63003e-014 1.03368e-014
rhumerus -63.1694 -38.5671 -34.505
rradius 13.13
rwrist 57.0562
rhand -18.9233 24.3109
rfingers 7.12502
rthumb 7.3792 -5.54042
lclavicle -1.63003e-014 1.03368e-014
lhumerus -47.8913 -6.85493 86.0685
lradius 100.092
lwrist -27.455
lhand -23.8241 24.4072
lfingers 7.12502
lthumb 2.64726 54.3705
rfemur -1.82041 7.29682 15.4149
rtibia 43.6555
rfoot 8.26271 6.51969
rtoes -13.7062
lfemur -19.0564 0.508652 -20.1978
ltibia 23.7921
lfoot -6.06191 2.80717
ltoes 3.2636
101
root 18.2349 18.593 -2.05498 2.52895 -8.76998 2.82558
lowerback 3.12548 0.21475 -5.53541
upperback 1.77978 0.124777 -3.35892
thorax 0.075239 0.035542 -0.355341
lowerneck -2.40959 -12.1409 -12.0295
upperneck 9.78313 -17.7762 17.1433
head 5.98965 -8.45749 5.94786
rclavicle -1.61016e-014 -3.26007e-014
rhumerus -62.7663 -37.2514 -35.9053
rradius 13.1646
rwrist 56.908
rhand -20.2656 25.2711
rfingers 7.12502
rthumb 6.08342 -4.62155
lclavicle -1.61016e-014 -3.26007e-014
lhumerus -47.7525 -7.12998 85.7031
lradius 100.08
lwrist -27.2212
lhand -22.9755 25.1611
lfingers 7.12502
lthumb 3.46673 55.1127
rfemur -2.99618 7.28713 14.3184
rtibia 45.9736
rfoot 8.3036 6.84573
rtoes -16.3071
lfemur -18.3371 0.0613803 -21.0698
ltibia 23.7394
lfoot -6.97906 2.80621
ltoes 7.06889
102
root 18.2455 18.603 -1.91565 2.27788 -8.65052 3.27179
lowerback 3.17459 0.0899177 -5.98118
upperback 1.94212 -0.0483429 -3.58165
thorax 0.222779 -0.0585899 -0.332357
lowerneck -2.52704 -12.2167 -11.8672
upperneck 9.48405 -17.8602 17.2846
head 5.93018 -8.49079 5.95199
rclavicle -6.75868e-015 -1.59028e-014
rhumerus -62.7968 -36.8994 -36.4215
rradius 12.939
rwrist 57.7909
rhand -21.8742 26.2804
rfingers 7.12502
rthumb 4.53029 -3.65116
lclavicle -6.75868e-015 -1.59028e-014
lhumerus -47.3664 -7.31623 85.0871
lradius 99.9702
lwrist -26.8965
lhand -22.1042 25.9936
lfingers 7.12502
lthumb 4.30812 55.9298
rfemur -4.02745 7.00755 13.7209
rtibia 48.0993
rfoot 7.50012 7.08802
rtoes -18.9117
lfemur -17.6164 -0.0887958 -21.6112
ltibia 23.7097
lfoot -7.53067 2.6203
ltoes 11.6389
103
root 18.254 18.6076 -1.78624 2.11441 -8.43804 3.30937
lowerback 3.35525 -0.188108 -6.19291
upperback 2.08037 -0.431114 -3.55677
thorax 0.281445 -0.254724 -0.178118
lowerneck -3.41471 -12.2891 -11.7337
upperneck 9.87134 -17.9318 17.1074
head 6.18517 -8.46832 5.80489
rclavicle 1.31198e-014 -1.74931e-014
rhumerus -62.2759 -36.5113 -37.1659
rradius 12.8614
rwrist 57.6989
rhand -21.5848 26.2888
rfingers 7.12502
rthumb 4.80971 -3.63662
lclavicle 1.31198e-014 -1.74931e-014
lhumerus -47.1042 -7.00062 84.5213
lradius 99.8211
lwrist -26.5715
lhand -21.9865 26.2558
lfingers 7.12502
lthumb 4.42178 56.1896
rfemur -5.17246 6.60123 13.5967
rtibia 50.1116
rfoot 6.62312 7.02896
rtoes -19.7189
lfemur -17.066 0.270697 -21.8771
ltibia 23.6943
lfoot -7.56563 2.37996
ltoes 12.1792
104
root 18.2691 18.6079 -1.66066 1.9301 -8.36646 3.52013
lowerback 3.63915 -0.328075 -6.52072
upperback 2.1017 -0.652106 -3.56767
thorax 0.158602 -0.365312 0.00105861
lowerneck -3.98571 -12.3518 -11.7103
upperneck 10.051 -17.9895 17.0168
head 6.33802 -8.46272 5.72594
rclavicle -3.37934e-015 3.97569e-014
rhumerus -61.0917 -35.0981 -39.3826
rradius 13.1514
rwrist 55.3502
rhand -20.5042 25.3042
rfingers 7.12502
rthumb 5.85308 -4.59495
lclavicle -3.37934e-015 3.97569e-014
lhumerus -47.0297 -6.85699 84.1435
lradius 99.623
lwrist -26.3005
lhand -22.3831 26.0453
lfingers 7.12502
lthumb 4.03881 55.9868
rfemur -6.29663 6.35482 13.2153
rtibia 52.0232
rfoot 5.33939 6.74732
rtoes -19.3435
lfemur -16.4903 0.31657 -22.3012
ltibia 23.626
lfoot -7.66408 2.50225
ltoes 11.6888
105
root 18.2855 18.6078 -1.53197 1.71335 -8.26698 3.8064
lowerback 3.83146 -0.357018 -6.76587
upperback 2.07441 -0.719386 -3.63659
thorax 0.028959 -0.396954 0.0699588
lowerneck -4.04401 -12.4444 -11.8999
upperneck 10.242 -18.1264 16.9972
head 6.44427 -8.52673 5.72311
rclavicle -2.88238e-014 -3.4191e-014
rhumerus -61.2934 -34.6323 -39.6565
rradius 13.442
rwrist 54.3628
rhand -19.4486 24.1994
rfingers 7.12502
rthumb 6.87207 -5.66904
lclavicle -2.88238e-014 -3.4191e-014
lhumerus -46.9908 -7.16324 83.922
lradius 99.3538
lwrist -26.0743
lhand -22.7176 26.0344
lfingers 7.12502
lthumb 3.71577 55.9818
rfemur -7.41642 6.1462 12.7303
rtibia 53.8252
rfoot 4.56065 6.36983
rtoes -19.4549
lfemur -15.7288 0.446556 -22.7875
ltibia 23.4665
lfoot -7.94837 2.43587
ltoes 10.3857
106
root 18.2959 18.6123 -1.39353 1.39617 -8.09927 4.09089
lowerback 3.90566 -0.566839 -7.11942
upperback 2.20456 -1.00846 -3.68854
thorax 0.143468 -0.54888 0.221548
lowerneck -3.76783 -12.4054 -12.0746
upperneck 9.9669 -18.0673 17.1594
head 6.33427 -8.52149 5.82852
rclavicle -3.71727e-014 -5.64548e-014
rhumerus -62.6401 -35.9419 -37.1838
rradius 13.3083
rwrist 56.2953
rhand -18.7 24.283
rfingers 7.12502
rthumb 7.59477 -5.5606
lclavicle -3.71727e-014 -5.64548e-014
lhumerus -46.7841 -7.08243 83.4386
lradius 99.114
lwrist -25.8547
lhand -22.9178 26.0225
lfingers 7.12502
lthumb 3.52248 55.9731
rfemur -8.41239 5.82274 12.246
rtibia 55.4659
rfoot 4.48654 5.69758
rtoes -18.8057
lfemur -14.8178 0.870044 -23.2739
ltibia 23.3173
lfoot -8.35072 2.02198
ltoes 8.9952
107
root 18.3083 18.6151 -1.26302 1.3194 -7.95425 3.9714
lowerback 3.88784 -0.840068 -7.08325
upperback 2.33752 -1.35889 -3.68622
thorax 0.309948 -0.729959 0.213441
lowerneck -3.08007 -12.2905 -11.9577
upperneck 8.91041 -17.8802 17.5959
head 5.89279 -8.48183 6.02848
rclavicle -3.08116e-014 -2.22639e-014
rhumerus -62.2996 -35.9232 -37.6143
rradius 13.3123
rwrist 55.5476
rhand -18.2366 24.4057
rfingers 7.12502
rthumb 8.04198 -5.42127
lclavicle -3.08116e-014 -2.22639e-014
lhumerus -46.25 -6.88528 82.717
lradius 98.6704
lwrist -25.6622
lhand -22.4794 25.8986
lfingers 7.12502
lthumb 3.94587 55.8418
rfemur -9.54638 5.3654 12.2387
rtibia 56.9135
rfoot 3.67796 4.82577
rtoes -19.0394
lfemur -14.1859 1.02852 -23.2641
ltibia 23.1609
lfoot -8.52326 1.7169
ltoes 7.50994
108
root 18.3258 18.6229 -1.15011 1.60826 -7.83887 3.44219
lowerback 3.87355 -1.02794 -6.48632
upperback 2.28624 -1.59127 -3.61266
thorax 0.261089 -0.838368 -0.0327237
lowerneck -3.19817 -12.4018 -11.7863
upperneck 8.88809 -18.0612 17.7576
head 5.93536 -8.55252 6.02226
rclavicle -2.08724e-014 -1.51076e-014
rhumerus -62.1093 -35.8681 -38.1179
rradius 13.3974
rwrist 54.3413
rhand -17.8389 24.1475
rfingers 7.12502
rthumb 8.42584 -5.66445
lclavicle -2.08724e-014 -1.51076e-014
lhumerus -45.725 -7.03236 82.1521
lradius 98.1602
lwrist -25.5837
lhand -21.6047 25.993
lfingers 7.12502
lthumb 4.79051 55.9188
rfemur -11.1497 5.01734 12.7422
rtibia 58.202
rfoot 2.56371 3.62822
rtoes -18.8498
lfemur -13.9658 1.00727 -22.8063
ltibia 23.0066
lfoot -8.52647 1.67525
ltoes 4.86764
109
root 18.3441 18.6331 -1.03242 1.80665 -7.68181 3.53522
lowerback 3.86145 -1.14749 -6.47713
upperback 2.14829 -1.75783 -3.61543
thorax 0.132588 -0.916033 -0.0332852
lowerneck -3.31596 -12.5549 -12.0706
upperneck 9.14587 -18.3324 18.0316
head 6.13322 -8.66566 6.10355
rclavicle -5.725e-014 -2.70347e-014
rhumerus -63.3855 -36.9257 -36.0206
rradius 13.2986
rwrist 55.1772
rhand -17.0645 23.3848
rfingers 7.12502
rthumb 9.17311 -6.39567
lclavicle -5.725e-014 -2.70347e-014
lhumerus -45.611 -7.44284 82.0576
lradius 97.8077
lwrist -25.2543
lhand -21.483 26.2145
lfingers 7.12502
lthumb 4.90797 56.1376
rfemur -12.7063 4.63574 12.4863
rtibia 59.3161
rfoot 1.76588 2.55296
rtoes -17.1416
lfemur -13.7245 1.04704 -23.0623
ltibia 22.925
lfoot -8.80923 1.5941
ltoes 3.34862
110
root 18.3537 18.6371 -0.900565 1.6563 -7.44354 3.97063
lowerback 3.90223 -1.29495 -6.96208
upperback 2.09754 -1.97691 -3.62608
thorax 0.0853264 -1.02689 0.232534
lowerneck -2.7767 -12.5088 -12.4304
upperneck 8.74934 -18.2884 18.4216
head 5.98497 -8.68401 6.32576
rclavicle 0 3.65764e-014
rhumerus -63.5717 -36.648 -35.9901
rradius 13.5468
rwrist 54.2934
rhand -16.6374 22.646
rfingers 7.12502
rthumb 9.5852 -7.11598
lclavicle 0 3.65764e-014
lhumerus -45.4194 -7.84565 81.941
lradius 97.0771
lwrist -25.2024
lhand -21.4668 26.4247
lfingers 7.12502
lthumb 4.92362 56.3475
rfemur -13.7313 4.0013 11.8816
rtibia 60.2404
rfoot 0.875347 1.75945
rtoes -17.9862
lfemur -13.1127 1.08724 -23.6613
ltibia 22.8492
lfoot -9.24273 1.3742
ltoes 2.74379
111
root 18.3603 18.6388 -0.773405 1.43777 -7.12305 4.12876
lowerback 3.98967 -1.55748 -7.23
upperback 2.19254 -2.33639 -3.61626
thorax 0.166804 -1.21197 0.402137
lowerneck -3.00601 -12.4782 -12.3472
upperneck 8.97225 -18.2521 18.3126
head 6.06827 -8.64802 6.26706
rclavicle 9.93923e-015 1.82882e-014
rhumerus -63.2601 -36.2211 -36.8024
rradius 13.7973
rwrist 53.2978
rhand -17.1858 22.8475
rfingers 7.12502
rthumb 9.05608 -6.93808
lclavicle 9.93923e-015 1.82882e-014
lhumerus -44.7555 -7.75091 81.2959
lradius 96.2251
lwrist -26.057
lhand -22.1545 25.5324
lfingers 7.12502
lthumb 4.2596 55.4696
rfemur -14.5697 3.34871 11.6725
rtibia 60.9794
rfoot -0.134218 0.649904
rtoes -19.171
lfemur -12.4286 0.831533 -23.9107
ltibia 22.7675
lfoot -9.59281 1.32982
ltoes 2.15973
112
root 18.3726 18.6415 -0.657533 1.5051 -6.8598 3.98993
lowerback 3.95548 -1.7086 -7.04132
upperback 2.21001 -2.52552 -3.54649
thorax 0.20965 -1.30637 0.374125
lowerneck -3.39922 -12.6425 -12.4348
upperneck 9.45854 -18.5055 18.2051
head 6.32537 -8.73834 6.18019
rclavicle 2.5842e-014 -3.18055e-014
rhumerus -63.7968 -36.7187 -36.0468
rradius 13.8191
rwrist 53.1721
rhand -17.4571 22.7823
rfingers 7.12502
rthumb 8.79427 -7.01444
lclavicle 2.5842e-014 -3.18055e-014
lhumerus -44.1987 -7.72607 80.9772
lradius 95.7803
lwrist -26.4793
lhand -20.9745 25.661
lfingers 7.12502
lthumb 5.39898 55.5722
rfemur -15.6988 2.89946 11.7934
rtibia 61.5257
rfoot -0.864765 -0.798142
rtoes -17.8751
lfemur -12.083 0.476098 -23.8518
ltibia 22.7084
lfoot -9.80291 1.49373
ltoes 1.25741
113
root 18.3821 18.6427 -0.543691 1.55874 -6.92842 3.70648
lowerback 3.98818 -1.6904 -6.72985
upperback 2.16905 -2.49627 -3.3983
thorax 0.139356 -1.28745 0.356362
lowerneck -3.08782 -12.7575 -12.806
upperneck 9.182 -18.6771 18.5351
head 6.28474 -8.84613 6.3378
rclavicle 1.2424e-014 4.45278e-014
rhumerus -64.5062 -37.3143 -34.9704
rradius 13.949
rwrist 53.1954
rhand -17.1668 21.8265
rfingers 7.12502
rthumb 9.07443 -7.95833
lclavicle 1.2424e-014 4.45278e-014
lhumerus -43.6699 -8.01229 80.9637
lradius 95.1275
lwrist -26.451
lhand -20.3374 25.5397
lfingers 7.12502
lthumb 6.0141 55.4344
rfemur -16.8208 2.81764 12.099
rtibia 61.8874
rfoot -1.21022 -2.33326
rtoes -16.5466
lfemur -11.7075 0.69411 -23.6441
ltibia 22.6434
lfoot -10.0439 1.46815
ltoes 1.34664
